<?xml version="1.0" encoding="utf-8"?>
<!-- Generator: Adobe Illustrator 21.0.0, SVG Export Plug-In . SVG Version: 6.00 Build 0)  -->
<svg version="1.1" baseProfile="basic" id="Layer_1"
	 xmlns="http://www.w3.org/2000/svg" xmlns:xlink="http://www.w3.org/1999/xlink" x="0px" y="0px" viewBox="0 0 65 65"
	 xml:space="preserve">
<style type="text/css">
	.st0{fill:#FFFFFF;}
</style>
<g>
	<path id="large" class="st0" d="M31.2,30l1.2-30l1.2,30l1.2,1.2l30,1.2l-30,1.2L33.8,35l-1.2,30l-1.2-30L30,33.8L0,32.5l30-1.2
		L31.2,30z"/>
</g>
<g transform="rotate(45)">
	<g>
		<path id="large_1_" class="st0" d="M44.7-2.5l1.2-30l1.2,30l1.2,1.2l30,1.2l-30,1.2l-1.2,1.2l-1.2,30l-1.2-30l-1.2-1.2L13.5,0
			l30-1.2L44.7-2.5z"/>
	</g>
</g>
<g>
	<path id="small" class="st0" d="M31.2,30l1.2-15l1.2,15l1.2,1.2l15,1.2l-15,1.2L33.8,35l-1.2,15l-1.2-15L30,33.8l-15-1.2l15-1.2
		L31.2,30z"/>
</g>
</svg>
